<svg id="Capa_1" enable-background="new 0 0 512 512" height="512" viewBox="0 0 512 512" width="512" xmlns="http://www.w3.org/2000/svg"><g><path d="m406.928 301.856c-24.826 0-45.023 20.198-45.023 45.024s20.197 45.024 45.023 45.024 45.024-20.198 45.024-45.024-20.198-45.024-45.024-45.024zm0 60.048c-8.284 0-15.023-6.74-15.023-15.024s6.739-15.024 15.023-15.024 15.024 6.74 15.024 15.024-6.74 15.024-15.024 15.024z"/><path d="m451.898 251.914c-2.599-89.67-76.347-161.818-166.635-161.818h-14.263v-30.048h-30.024v-60.048h-90.048v60.048h-30.023v240.168h150.095v-120.12h14.264c40.692 0 74.069 31.852 76.548 71.931-35.368 16.917-59.859 53.054-59.859 94.805v15.072h-241.109v30h241.108v30.048h-301.952v90.048h512v-165.168c0-41.846-24.603-78.05-60.102-94.918zm-270.97-221.914h30.048v30.048h-30.048zm60.072 60.048v120.12h-90.096v-120.12zm-90.096 180.168v-30.048h90.096v30.048zm134.36-120.12h-14.264v-30h14.264c70.649 0 128.952 53.868 135.997 122.687-4.673-.638-9.44-.975-14.285-.975-5.401 0-10.707.411-15.891 1.201-6.789-52.347-51.656-92.913-105.821-92.913zm196.736 331.904h-452v-30.048h452zm-150.048-60.048v-75.12c0-41.368 33.655-75.024 75.023-75.024s75.025 33.656 75.025 75.024v75.12z"/></g></svg>