<?xml version="1.0" encoding="utf-8"?>
<!-- Generator: Adobe Illustrator 17.1.0, SVG Export Plug-In . SVG Version: 6.00 Build 0)  -->
<!DOCTYPE svg PUBLIC "-//W3C//DTD SVG 1.1//EN" "http://www.w3.org/Graphics/SVG/1.1/DTD/svg11.dtd">
<svg version="1.1" id="Layer_1" xmlns="http://www.w3.org/2000/svg" xmlns:xlink="http://www.w3.org/1999/xlink" x="0px" y="0px"
	 viewBox="0 0 313 385" enable-background="new 0 0 313 385" xml:space="preserve">
<path d="M95,145.8c0-12.8,0-25.7,0-38.5c0-28.6,24.2-54.6,52.4-58.6c31.8-4.5,61.7,17.5,68,46.4c0.9,4,1.5,8.2,1.5,12.3
	c0.1,24.8-0.1,49.6,0.1,74.5c0.3,29.3-20.8,56.4-52.2,60.8c-34.5,4.8-62-17.5-68.7-48.1c-1.2-5.4-1.1-11.2-1.2-16.8
	c-0.2-10.7-0.1-21.3-0.1-32C94.9,145.8,95,145.8,95,145.8z M208,145.9c0.1,0,0.2,0,0.2,0c0-11.5,0-23,0-34.5c0-3.8,0.1-7.7-0.6-11.4
	c-5.5-28.7-32.7-47.7-62.1-42.1c-21.8,4.1-41,25-41.5,47.1c-0.5,20.5-0.3,41-0.2,61.4c0,8.5-0.5,17.1,0.8,25.3
	c4.1,26,29.4,46.1,58.6,42.4c23.1-3,44.1-24.2,44.7-47.3C208.3,173.2,208,159.5,208,145.9z"/>
<path d="M200.7,281.4c-1.1,1.5-1.7,2.9-2.8,3.7c-12.8,10.4-25.6,20.6-38.3,31c-2.5,2-4.3,2.3-6.9,0.2
	c-12.9-10.5-25.9-20.7-38.6-31.4c-1.2-1-1.7-4.8-0.8-6.3c1.7-3,4.6-1.7,6.8,0.1c9.2,7.4,18.4,14.7,27.4,22.3c8.7,7.3,8.5,7.3,17,0.2
	c9.2-7.7,18.4-15.2,27.8-22.6c1.3-1,3.7-1.4,5.4-1C198.8,277.7,199.6,279.8,200.7,281.4z"/>
<path d="M164.4,103.9c0,3.5,0.3,7-0.1,10.4c-0.5,5-3.8,7.8-8.5,7.8c-4.4-0.1-7.9-2.9-8.1-7.6c-0.4-7.1-0.4-14.3,0-21.4
	c0.3-4.8,4.3-8.1,8.5-8c4.2,0.1,7.4,3.2,8.2,7.9c0.1,0.5,0.2,1,0.2,1.5c0,3.2,0,6.3,0,9.5C164.5,103.9,164.5,103.9,164.4,103.9z"/>
</svg>
