<?xml version="1.0" encoding="utf-8"?>
<!-- Generator: Adobe Illustrator 17.1.0, SVG Export Plug-In . SVG Version: 6.00 Build 0)  -->
<!DOCTYPE svg PUBLIC "-//W3C//DTD SVG 1.1//EN" "http://www.w3.org/Graphics/SVG/1.1/DTD/svg11.dtd">
<svg version="1.1" id="Layer_1" xmlns="http://www.w3.org/2000/svg" xmlns:xlink="http://www.w3.org/1999/xlink" x="0px" y="0px"
	 viewBox="0 0 231 250" enable-background="new 0 0 231 250" xml:space="preserve">
<path d="M17.3,234.6c-1.9-38.6,18.1-84,69.5-102.4c-4.7-7-9.3-14.3-14.3-21.3c-0.8-1.2-3.2-1.7-4.9-1.8c-7.9-0.5-16.9-5.6-19.3-18.4
	c-1.7-9.2,1.6-18.9,10.8-23.6c3.8-1.9,4.6-4,5.1-8.1c2.6-23.1,19.9-42.7,42.2-47c23.9-4.5,43.1,3.4,57.1,23.2
	c5.2,7.3,8.1,15.9,8.4,25c0.1,3.4,1.4,4.7,4.1,6.2c9.4,5,12.9,13.3,12,23.7c-0.7,7.9-7,16.9-15,17.9c-8.2,1-11,5.8-14.4,11.9
	c-2.5,4.4-6.5,7.9-10.1,12c46.4,18.2,70,52.3,70.8,102.8C151.7,234.6,84.7,234.6,17.3,234.6z M32.2,221.7c57.5,0,114.5,0,171.6,0
	c0-2.5,0.3-4.7-0.1-6.8c-5.8-30-22.1-51.9-49.7-65.2c-3.1-1.5-5.1-1.4-7.6,1.3c-9.2,9.6-18.7,18.9-28.2,28.5
	C107.5,168.5,97.1,158,87,147.8C54,159.6,32.2,193.7,32.2,221.7z M152.8,78.4c-23.5,0-46.5,0-69.5,0c-3.3,29.6,9.9,46.7,32.7,49.4
	c11.3,1.3,28.8-8,31.3-18.2c-9.7,0-19.3,0-29,0c0-4.8,0-9.1,0-13.8c11.7,0,22.9,0,34.4,0C152.8,89.9,152.8,84.3,152.8,78.4z
	 M157.8,63.2c-0.5-13.5-8.1-28.6-24.4-35.5c-14.3-6-27.5-3.9-39.5,5.1C84,40.3,78.6,50.5,78.2,63.2C105,63.2,131.2,63.2,157.8,63.2z
	 M134,142.9c-11,0-21.2,0-30.8,0c5.2,5.3,10.3,10.5,15.1,15.3C123,153.7,128.1,148.7,134,142.9z M69.5,78.3
	c-6.4,1.7-8.2,4.1-7.5,9.8c0.6,4.2,3,6.7,7.5,6.9C69.5,89.2,69.5,83.8,69.5,78.3z M166.8,78c0,6,0,11.6,0,17.8
	c4.1-1.5,6.8-3.6,7.2-7.9C174.5,82.9,172.6,79.6,166.8,78z"/>
<path d="M149.2,207.8c0-4.3,0-8.3,0-12.9c10.5,0,20.8,0,31.5,0c0,4.2,0,8.3,0,12.9C170.4,207.8,160,207.8,149.2,207.8z"/>
</svg>
