<?xml version="1.0" encoding="utf-8"?>
<!-- Generator: Adobe Illustrator 17.1.0, SVG Export Plug-In . SVG Version: 6.00 Build 0)  -->
<!DOCTYPE svg PUBLIC "-//W3C//DTD SVG 1.1//EN" "http://www.w3.org/Graphics/SVG/1.1/DTD/svg11.dtd">
<svg version="1.1" id="Layer_1" xmlns="http://www.w3.org/2000/svg" xmlns:xlink="http://www.w3.org/1999/xlink" x="0px" y="0px"
	 viewBox="0 0 384 384" enable-background="new 0 0 384 384" xml:space="preserve">
<g>
	<path fill="#FFFFFF" d="M282,384.7c-59.5,0-119,0-178.5,0c6.6-2.6,8.9-7.5,8.8-14.4c-0.2-19.1,0-38.2-0.1-57.4c0-2.4,0.7-3.8,2.9-5
		c10.2-5.5,20.4-11.1,30.4-16.9c23.6-13.9,36.1-34.5,36.1-62.2c-0.1-50.7,0-101.5,0-152.2c0-3.4,0.1-6.8,0-10.1
		c-0.2-4.8-2.6-8.3-7.1-10.1c-7.5-3-15.2,2.5-15.3,11.1c-0.1,14.6-0.7,29.3,0.2,43.8c0.6,9.4-2,15.5-10.6,19.4
		c-4,1.8-7.4,4.7-11.7,7.5c0-2.4,0-3.9,0-5.4c0-39.2-0.1-78.5,0.1-117.7c0-6.9-2.2-11.9-8.8-14.4c59.5,0,119,0,178.5,0
		c-6.7,2.5-9.1,7.5-8.8,14.4c0.3,7.4,0.1,14.7,0,22.1c0,1-0.2,2-0.3,3.4c-4.3-3.4-7.3-7.7-13.1-7.8c-5.7-0.1-8.8,4.5-13.2,7.8
		c0-9.8,0.1-18.7,0-27.7c-0.1-7.3-5.4-12.1-12.3-11.6c-6.1,0.5-10.2,5.3-10.2,12.1c0,39.7,0,79.5,0,119.2c0,1.4,0,2.9,0,5.1
		c-7-4.7-13.2-9-19.6-13c-2.3-1.5-3-3.1-3-5.8c0.1-17,0-34,0.1-51c0-4.7-1.6-8.6-5.8-11c-7.8-4.5-16.7,1.1-16.7,10.6
		c0,54.7,0,109.4,0,164.2c0,2.2,0.1,4.5,0.4,6.7c3.1,23.3,15.2,40.5,35.4,52.2c10,5.8,20.2,11.4,30.4,16.9c2.5,1.3,3.2,2.9,3.2,5.6
		c-0.1,19,0.1,38-0.1,57C273.1,377.2,275.4,382.1,282,384.7z"/>
	<path d="M128.2,0.7c6.6,2.6,8.8,7.5,8.8,14.4c-0.2,39.2-0.1,78.5-0.1,117.7c0,1.5,0,3,0,5.4c4.3-2.8,7.8-5.7,11.7-7.5
		c8.6-3.9,11.2-10,10.6-19.4c-0.9-14.6-0.3-29.2-0.2-43.8c0.1-8.6,7.8-14.2,15.3-11.1c4.5,1.8,6.9,5.3,7.1,10.1
		c0.1,3.4,0,6.7,0,10.1c0,50.7,0,101.5,0,152.2c0,27.8-12.4,48.3-36.1,62.2c-10,5.9-20.2,11.4-30.4,16.9c-2.2,1.2-2.9,2.5-2.9,5
		c0.1,19.1-0.1,38.2,0.1,57.4c0.1,6.9-2.2,11.9-8.8,14.4c-1.7,0-3.5,0-5.2,0c-6.5-2.7-8.7-7.6-8.6-14.5c0.3-18.9,0-37.7,0.2-56.6
		c0-2.8-0.7-4.5-3.3-5.9c-11.1-6-22.3-11.8-33-18.5c-21.4-13.5-33-33-33.2-58.5c-0.2-54.1-0.1-108.2-0.1-162.3
		c0-7.6,4.6-12.8,11.2-12.8c6.7,0,11.3,5.1,11.3,12.7c0,16,0.2,32-0.1,48c-0.1,5,1.4,7.9,5.7,10.4c5.7,3.2,10.9,7.2,17,11.2
		c0-2.1,0-3.5,0-4.8c0-39.6,0-79.2,0-118.8c0-7.7,4.4-12.7,11.1-12.8c6.9-0.1,11.3,5,11.4,12.9c0,6.7,0,13.5,0,20.2
		c0,1.9,0,3.8,0,6.3c4.5-3.6,7.5-7.9,13.2-7.9c5.8,0,8.8,4.6,13.3,7.8c0.1-1.7,0.2-2.9,0.2-4.1c0-7.1,0.3-14.3-0.1-21.4
		C114,8.3,116.4,3.4,123,0.7C124.7,0.7,126.5,0.7,128.2,0.7z M101,59.4c-3.8,3.5-7.5,6.7-10.9,10.2c-1.2,1.3-2.3,3.3-2.3,5
		c-0.1,25.1-0.1,50.2-0.1,75.3c0,2.1,0.5,3.5,2.4,4.6c3.7,2.2,7.3,6.5,11,6.5c3.7,0,7.5-4,11-6.5c1.2-0.9,2.3-2.7,2.3-4.1
		c0.1-25.4,0.1-50.7,0.1-76.1c0-1.1-0.3-2.6-1-3.4C109.4,67,105.2,63.3,101,59.4z M88.8,283.9c0.3-0.3,0.6-0.6,1-0.9
		c0-12.2-0.1-24.4,0.1-36.6c0-2.5-0.7-4.1-2.9-5.5c-13.6-9-27.2-18.2-40.7-27.2c-1-0.7-2-1.2-3.4-2.1c0,6.6,0,12.6,0,18.5
		c-0.1,14.4,5.1,26.7,16.4,35.4C68.3,272.5,78.9,277.8,88.8,283.9z M112.2,284c9.2-5.2,17.8-9.9,26.2-15.1c3.1-1.9,5.9-4.6,8.5-7.3
		c13.6-13.9,12.8-31.3,11.9-48.9c-0.6,0.2-0.9,0.2-1.2,0.4c-14.5,9.5-29.1,19-43.5,28.6c-1,0.7-1.7,2.6-1.8,4
		c-0.2,7.2-0.1,14.5-0.1,21.7C112.2,272.7,112.2,277.9,112.2,284z M42.8,149.8c0,11.4-0.1,21.9,0.1,32.4c0,1.3,1.3,2.9,2.4,3.7
		c13.8,9.4,27.7,18.7,41.6,28c0.7,0.5,1.6,0.8,2.8,1.4c0-11.1,0.1-21.7-0.1-32.3c0-1.1-1.4-2.5-2.5-3.3
		C77,172.7,66.9,166,56.7,159.1C52.3,156.2,47.8,153.2,42.8,149.8z M112.2,215.2c0.8-0.1,1.2-0.1,1.5-0.2
		c14.6-9.6,29.2-19.1,43.8-28.7c0.7-0.5,1.4-1.5,1.5-2.3c0.1-10.8,0.1-21.6,0.1-32.6c-0.7,0.2-1.1,0.2-1.4,0.4
		c-14.6,9.6-29.2,19.1-43.8,28.8c-0.9,0.6-1.6,2.2-1.6,3.3c-0.2,4.9-0.1,9.7-0.1,14.6C112.2,203.9,112.2,209.5,112.2,215.2z"/>
	<path d="M282,384.7c-6.6-2.6-8.9-7.5-8.8-14.4c0.2-19,0-38,0.1-57c0-2.7-0.7-4.2-3.2-5.6c-10.2-5.5-20.4-11.1-30.4-16.9
		c-20.1-11.7-32.3-29-35.4-52.2c-0.3-2.2-0.4-4.5-0.4-6.7c0-54.7,0-109.4,0-164.2c0-9.5,8.9-15.2,16.7-10.6c4.2,2.4,5.8,6.3,5.8,11
		c0,17,0,34-0.1,51c0,2.7,0.7,4.3,3,5.8c6.4,4,12.6,8.3,19.6,13c0-2.3,0-3.7,0-5.1c0-39.7,0-79.5,0-119.2c0-6.9,4.1-11.7,10.2-12.1
		c6.9-0.5,12.2,4.4,12.3,11.6c0.1,9,0,17.9,0,27.7c4.4-3.4,7.4-7.9,13.2-7.8c5.7,0.1,8.7,4.4,13.1,7.8c0.1-1.4,0.3-2.4,0.3-3.4
		c0-7.4,0.2-14.7,0-22.1c-0.2-6.9,2.2-11.9,8.8-14.4c1.7,0,3.5,0,5.2,0c6.5,2.7,8.6,7.6,8.6,14.5c-0.2,39.3-0.1,78.7-0.1,118
		c0,1.4,0,2.8,0,4.4c0.8-0.2,1.1-0.1,1.3-0.3c4.2-2.7,8.2-5.9,12.6-8c6.8-3.3,9-8,8.6-15.6c-0.7-15.6-0.3-31.2-0.2-46.8
		c0-6.3,4.6-11.1,10.6-11.4c5.6-0.3,10.7,3.8,11.7,9.5c0.2,1.5,0.2,3,0.2,4.5c0,52.7-0.1,105.4,0,158.1c0.1,29-12.8,50.1-37.8,64.2
		c-9.3,5.3-18.7,10.6-28.2,15.6c-2.8,1.5-3.7,3.3-3.7,6.4c0.2,18.7-0.1,37.5,0.2,56.2c0.1,6.9-2.1,11.8-8.6,14.5
		C285.5,384.7,283.7,384.7,282,384.7z M284.6,59.4c-4.1,3.8-8,7.3-11.7,11c-0.9,0.9-1.4,2.6-1.4,3.9c-0.1,25.2,0,50.4-0.1,75.7
		c0,2.3,0.7,3.6,2.7,4.8c3.6,2.1,7.2,6.4,10.7,6.3c3.7-0.1,7.5-4,11-6.6c1.2-0.9,2.2-2.7,2.2-4.2c0.1-25.3,0.1-50.7,0-76
		c0-1.3-0.6-3-1.5-3.9C292.7,66.7,288.7,63.2,284.6,59.4z M295.7,283c0.3,0.3,0.7,0.7,1,1c10.1-6.3,20.6-12,30.2-19
		c8.2-6,13.3-14.9,14.7-24.9c1.3-8.9,1-18.1,1.5-27.4c-1.1,0.3-1.5,0.3-1.8,0.5c-14.6,9.6-29.3,19.1-43.8,28.7
		c-0.9,0.6-1.7,1.9-1.7,2.9C295.7,257.5,295.7,270.2,295.7,283z M226.4,211.4c0,6.7,0,12.8,0,18.9c0,16.5,7.1,29.5,20.6,38.5
		c8.1,5.4,16.9,9.7,25.3,14.4c0.1,0.1,0.4-0.2,0.9-0.4c0-12.8,0.1-25.6-0.1-38.5c0-1.1-1.3-2.6-2.4-3.3
		c-12.4-8.4-24.8-16.8-37.2-25.1C231.3,214.6,229.2,213.2,226.4,211.4z M295.7,215.3c0.8-0.2,1.3-0.1,1.5-0.3
		c14.6-9.6,29.3-19.1,43.8-28.8c1-0.6,1.6-2.4,1.6-3.7c0.2-7,0.1-14,0.1-21c0-3.4,0-6.8,0-10.5c-0.9,0.4-1.3,0.4-1.6,0.6
		c-14.5,9.5-29,19-43.5,28.6c-1,0.7-1.8,2.4-1.8,3.6c-0.2,5.1-0.1,10.2-0.1,15.4C295.7,204.5,295.7,209.9,295.7,215.3z M226.4,149.8
		c0,11.5-0.1,22.2,0.1,32.9c0,1,1.2,2.3,2.2,3c13.9,9.4,27.8,18.7,41.7,28c0.8,0.5,1.6,0.9,2.8,1.5c0-11.1,0-21.7-0.1-32.3
		c0-0.9-0.8-2.1-1.6-2.7C256.8,170.2,242,160.3,226.4,149.8z"/>
	<path fill="#FFFFFF" d="M123,0.7c-6.5,2.7-8.9,7.6-8.6,14.5c0.3,7.1,0.1,14.2,0.1,21.4c0,1.2-0.1,2.4-0.2,4.1
		c-4.5-3.2-7.5-7.8-13.3-7.8c-5.7,0-8.7,4.4-13.2,7.9c0-2.5,0-4.4,0-6.3c0-6.7,0-13.5,0-20.2c0-8-4.4-13-11.4-12.9
		c-6.7,0.1-11.1,5.1-11.1,12.8c0,39.6,0,79.2,0,118.8c0,1.3,0,2.7,0,4.8c-6-4-11.3-7.9-17-11.2c-4.3-2.4-5.8-5.4-5.7-10.4
		c0.4-16,0.2-32,0.1-48c0-7.6-4.6-12.7-11.3-12.7c-6.6,0-11.2,5.2-11.2,12.8c0,54.1-0.2,108.2,0.1,162.3
		c0.1,25.5,11.7,45.1,33.2,58.5c10.7,6.7,21.9,12.5,33,18.5c2.6,1.4,3.4,3,3.3,5.9c-0.1,18.9,0.1,37.7-0.2,56.6
		c-0.1,6.9,2.1,11.8,8.6,14.5c-32.5,0-65,0-97.5,0c0-128,0-256,0-384C41.5,0.7,82.2,0.7,123,0.7z"/>
	<path fill="#FFFFFF" d="M287.2,384.7c6.5-2.7,8.7-7.6,8.6-14.5c-0.3-18.7,0-37.5-0.2-56.2c0-3.2,0.8-4.9,3.7-6.4
		c9.5-5,18.8-10.3,28.2-15.6c25-14.1,37.8-35.3,37.8-64.2c-0.1-52.7,0-105.4,0-158.1c0-1.5,0.1-3-0.2-4.5c-1-5.7-6.1-9.9-11.7-9.5
		c-6,0.3-10.6,5.1-10.6,11.4c-0.1,15.6-0.5,31.3,0.2,46.8c0.4,7.6-1.8,12.3-8.6,15.6c-4.5,2.2-8.4,5.3-12.6,8
		c-0.2,0.1-0.5,0.1-1.3,0.3c0-1.5,0-3,0-4.4c0-39.3-0.1-78.7,0.1-118c0-6.9-2.1-11.8-8.6-14.5c24.2,0,48.5,0,72.7,0
		c0,128,0,256,0,384C352.2,384.7,319.7,384.7,287.2,384.7z"/>
	<path fill="#FFFFFF" d="M101,59.4c4.2,3.9,8.4,7.6,12.4,11.5c0.7,0.7,1,2.2,1,3.4c0.1,25.4,0.1,50.7-0.1,76.1
		c0,1.4-1.1,3.3-2.3,4.1c-3.5,2.6-7.3,6.5-11,6.5c-3.7,0-7.3-4.3-11-6.5c-1.9-1.1-2.4-2.5-2.4-4.6c0.1-25.1,0-50.2,0.1-75.3
		c0-1.7,1.1-3.7,2.3-5C93.5,66.1,97.2,62.9,101,59.4z"/>
	<path fill="#FFFFFF" d="M88.8,283.9c-9.9-6.1-20.4-11.4-29.7-18.5c-11.3-8.6-16.5-21-16.4-35.4c0-6,0-11.9,0-18.5
		c1.4,0.9,2.5,1.4,3.4,2.1c13.6,9.1,27.1,18.2,40.7,27.2c2.1,1.4,2.9,3,2.9,5.5c-0.1,12.2-0.1,24.4-0.1,36.6
		C89.4,283.3,89.1,283.6,88.8,283.9z"/>
	<path fill="#FFFFFF" d="M112.2,284c0-6,0-11.2,0-16.4c0-7.2-0.1-14.5,0.1-21.7c0-1.4,0.7-3.3,1.8-4c14.4-9.6,29-19.1,43.5-28.6
		c0.3-0.2,0.7-0.2,1.2-0.4c0.9,17.6,1.7,35-11.9,48.9c-2.6,2.7-5.4,5.4-8.5,7.3C130,274,121.4,278.7,112.2,284z"/>
	<path fill="#FFFFFF" d="M42.8,149.8c5.1,3.4,9.5,6.4,13.9,9.3c10.2,6.8,20.3,13.6,30.4,20.5c1.1,0.8,2.5,2.2,2.5,3.3
		c0.2,10.6,0.1,21.2,0.1,32.3c-1.2-0.6-2.1-0.9-2.8-1.4c-13.9-9.3-27.8-18.6-41.6-28c-1.1-0.8-2.4-2.4-2.4-3.7
		C42.7,171.7,42.8,161.2,42.8,149.8z"/>
	<path fill="#FFFFFF" d="M112.2,215.2c0-5.7,0-11.3,0-16.8c0-4.9-0.1-9.7,0.1-14.6c0-1.2,0.7-2.7,1.6-3.3
		c14.5-9.7,29.2-19.2,43.8-28.8c0.3-0.2,0.7-0.2,1.4-0.4c0,11,0,21.8-0.1,32.6c0,0.8-0.7,1.9-1.5,2.3c-14.6,9.6-29.2,19.2-43.8,28.7
		C113.5,215.1,113,215.1,112.2,215.2z"/>
	<path fill="#FFFFFF" d="M284.6,59.4c4.2,3.8,8.1,7.3,11.8,11c0.9,0.9,1.5,2.6,1.5,3.9c0.1,25.3,0.1,50.7,0,76c0,1.4-1,3.3-2.2,4.2
		c-3.5,2.6-7.3,6.5-11,6.6c-3.5,0.1-7-4.2-10.7-6.3c-1.9-1.1-2.7-2.5-2.7-4.8c0.1-25.2,0-50.4,0.1-75.7c0-1.3,0.5-3,1.4-3.9
		C276.6,66.7,280.5,63.2,284.6,59.4z"/>
	<path fill="#FFFFFF" d="M295.7,283c0-12.7,0-25.5,0.1-38.2c0-1,0.8-2.4,1.7-2.9c14.6-9.6,29.2-19.2,43.8-28.7
		c0.3-0.2,0.7-0.2,1.8-0.5c-0.4,9.4-0.2,18.5-1.5,27.4c-1.4,10.1-6.5,18.9-14.7,24.9c-9.6,7-20.1,12.7-30.2,19
		C296.4,283.6,296,283.3,295.7,283z"/>
	<path fill="#FFFFFF" d="M226.4,211.4c2.7,1.8,4.9,3.2,7.1,4.6c12.4,8.3,24.9,16.7,37.2,25.1c1.1,0.7,2.4,2.2,2.4,3.3
		c0.2,12.8,0.1,25.7,0.1,38.5c-0.4,0.2-0.7,0.4-0.9,0.4c-8.5-4.7-17.3-9-25.3-14.4c-13.5-9.1-20.7-22-20.6-38.5
		C226.4,224.2,226.4,218.2,226.4,211.4z"/>
	<path fill="#FFFFFF" d="M295.7,215.3c0-5.5,0-10.8,0-16.1c0-5.1-0.1-10.2,0.1-15.4c0.1-1.2,0.8-2.9,1.8-3.6
		c14.4-9.6,29-19.1,43.5-28.6c0.3-0.2,0.7-0.3,1.6-0.6c0,3.7,0,7.1,0,10.5c0,7,0.1,14-0.1,21c0,1.3-0.6,3.1-1.6,3.7
		c-14.5,9.7-29.2,19.2-43.8,28.8C297,215.2,296.5,215.2,295.7,215.3z"/>
	<path fill="#FFFFFF" d="M226.4,149.8c15.6,10.5,30.4,20.4,45.2,30.4c0.8,0.5,1.5,1.8,1.6,2.7c0.1,10.6,0.1,21.2,0.1,32.3
		c-1.2-0.6-2.1-1-2.8-1.5c-13.9-9.3-27.8-18.6-41.7-28c-1-0.7-2.2-2-2.2-3C226.4,172.1,226.4,161.4,226.4,149.8z"/>
</g>
</svg>
