<?xml version="1.0" encoding="utf-8"?>
<!-- Generator: Adobe Illustrator 21.1.0, SVG Export Plug-In . SVG Version: 6.00 Build 0)  -->
<svg version="1.1" id="Layer_1" xmlns="http://www.w3.org/2000/svg" xmlns:xlink="http://www.w3.org/1999/xlink" x="0px" y="0px"
	 viewBox="0 0 89.1 88.5" style="enable-background:new 0 0 89.1 88.5;" xml:space="preserve">
<style type="text/css">
	.st0{fill:#005D5A;}
	.st1{fill:none;stroke:#005D5A;stroke-miterlimit:10;}
</style>
<path class="st0" d="M27.5,49.3h-7.7l-0.9,2.1c-0.3,0.7-0.4,1.3-0.4,1.7c0,0.6,0.2,1.1,0.7,1.3c0.3,0.2,1,0.3,2.1,0.4v0.6h-7.2v-0.6
	c0.8-0.1,1.4-0.4,1.9-1c0.5-0.5,1.1-1.6,1.9-3.3l7.8-17.3H26l7.8,17.8c0.7,1.7,1.4,2.7,1.8,3.2c0.4,0.3,0.9,0.5,1.5,0.6v0.6H26.7
	v-0.6h0.4c0.8,0,1.4-0.1,1.8-0.4c0.2-0.2,0.4-0.4,0.4-0.7c0-0.2,0-0.4-0.1-0.6c0-0.1-0.2-0.5-0.5-1.2L27.5,49.3z M27,48.1l-3.2-7.5
	l-3.3,7.5H27z"/>
<path class="st0" d="M55,33.8v0.6c-0.8,0.1-1.5,0.5-2.1,1.3c-0.4,0.5-1.1,1.8-2,3.8L43.5,56h-0.5l-7.4-17.2
	c-0.9-2.1-1.5-3.3-1.8-3.7c-0.3-0.4-0.9-0.6-1.7-0.7v-0.6h10.4v0.6H42c-0.9,0-1.6,0.1-1.9,0.4c-0.2,0.2-0.4,0.4-0.4,0.7
	c0,0.2,0,0.4,0.1,0.7c0.1,0.3,0.4,1,0.9,2.1L45.4,49l4.3-9.6c0.5-1.2,0.8-1.9,0.9-2.3c0.1-0.4,0.2-0.7,0.2-1c0-0.3-0.1-0.6-0.3-0.8
	c-0.2-0.2-0.4-0.4-0.8-0.6c-0.5-0.2-1.1-0.3-1.8-0.3v-0.6H55z"/>
<path class="st0" d="M56.8,55.5v-0.6h0.7c0.6,0,1.1-0.1,1.4-0.3c0.3-0.2,0.6-0.5,0.7-0.8c0.1-0.2,0.1-0.9,0.1-2V37.5
	c0-1.1-0.1-1.8-0.2-2.1c-0.1-0.3-0.4-0.5-0.7-0.7c-0.4-0.2-0.8-0.3-1.4-0.3h-0.7v-0.6h9.7c2.6,0,4.7,0.4,6.3,1.1
	c1.9,0.9,3.4,2.2,4.4,3.9c1,1.7,1.5,3.7,1.5,5.9c0,1.5-0.2,2.9-0.7,4.2c-0.5,1.3-1.1,2.3-1.9,3.2c-0.8,0.8-1.7,1.5-2.7,2
	c-1,0.5-2.3,0.9-3.7,1.2c-0.7,0.1-1.7,0.2-3.1,0.2H56.8z M65.1,35v16.9c0,0.9,0,1.4,0.1,1.6c0.1,0.2,0.2,0.4,0.4,0.5
	c0.3,0.2,0.7,0.2,1.2,0.2c1.8,0,3.1-0.6,4.1-1.8c1.3-1.6,1.9-4.2,1.9-7.6c0-2.8-0.4-5-1.3-6.7c-0.7-1.3-1.6-2.2-2.7-2.7
	C68.1,35.2,66.9,35,65.1,35z"/>
<path class="st1" d="M50.6,85.8c-3.4,3.4-8.9,3.4-12.3,0l-35-35c-3.4-3.4-3.4-8.9,0-12.3l35-35c3.4-3.4,8.9-3.4,12.3,0l35,35
	c3.4,3.4,3.4,8.9,0,12.3L50.6,85.8z"/>
<path class="st1" d="M50.1,82.9c-3.1,3.1-8.2,3.1-11.4,0L6.2,50.4c-3.1-3.1-3.1-8.2,0-11.4L38.7,6.5c3.1-3.1,8.2-3.1,11.4,0L82.6,39
	c3.1,3.1,3.1,8.2,0,11.4L50.1,82.9z"/>
</svg>
